External Loads File
version=1
nRows=92
nColumns=13
Range=5.000000e-03-10 seconds
endheader
time 	forceRightX 	forceRightY 	forceRightZ 	pointRightX 	pointRightY 	pointRightZ 	forceLeftX 	forceLeftY 	forceLeftZ 	pointLeftX 	pointLeftY 	pointLeftZ 		
5.005000 16.322284 -82.687276 -0.000000 0.164826 0.420493 -0.147288 205.489677 444.668044 -0.000000 0.401552 0.224864 -0.380282
5.010000 9.024226 -85.847781 -0.000000 0.170892 0.429668 -0.147625 164.717014 554.917861 -0.000000 0.396004 0.216199 -0.379953
5.015000 0.468000 -88.502492 -0.000000 0.177494 0.438467 -0.147978 131.776120 677.194531 -0.000000 0.389560 0.207960 -0.379404
5.020000 -8.681509 -90.633955 -0.000000 0.184570 0.446828 -0.148364 109.730087 796.911223 -0.000000 0.383560 0.200218 -0.379443
5.025000 -18.431051 -92.394450 -0.000000 0.192191 0.454629 -0.148679 102.701529 900.188387 -0.000000 0.376604 0.192945 -0.379299
5.030000 -28.474897 -93.987206 -0.000000 0.200258 0.461866 -0.148896 108.337698 979.192070 -0.000000 0.369230 0.186074 -0.379292
5.035000 -38.676913 -95.557851 -0.000000 0.208779 0.468528 -0.149148 122.768999 1031.251006 -0.000000 0.361383 0.180211 -0.379219
5.040000 -49.243697 -96.951101 -0.000000 0.217974 0.474614 -0.149061 144.384170 1057.021993 -0.000000 0.353307 0.174171 -0.379009
5.045000 -59.925258 -97.956198 -0.000000 0.227002 0.480491 -0.149666 166.896670 1059.978045 -0.000000 0.344786 0.169240 -0.378972
5.050000 -70.817154 -97.910606 -0.000000 0.236574 0.485140 -0.149935 189.462401 1043.925910 -0.000000 0.335989 0.164634 -0.378870
5.055000 -81.704907 -96.020930 -0.000000 0.246321 0.489413 -0.150277 210.304006 1012.878617 -0.000000 0.326952 0.160442 -0.378892
5.060000 -92.181423 -91.418357 -0.000000 0.256248 0.493195 -0.150590 228.066537 970.391037 -0.000000 0.317703 0.157101 -0.378911
5.065000 -101.735886 -83.231810 -0.000000 0.266330 0.496349 -0.150870 242.326199 919.197820 -0.000000 0.308327 0.154380 -0.378894
5.070000 -109.752265 -70.784555 -0.000000 0.276462 0.498781 -0.151301 252.906960 861.280085 -0.000000 0.298810 0.152294 -0.378903
5.075000 -115.593825 -53.725325 -0.000000 0.286576 0.500528 -0.151623 259.853896 798.029072 -0.000000 0.289166 0.150957 -0.378996
5.080000 -118.722717 -31.961324 -0.000000 0.297031 0.501608 -0.151768 264.065797 730.280808 -0.000000 0.279471 0.150295 -0.379087
5.085000 -118.612577 -6.077418 -0.000000 0.307280 0.502090 -0.151990 264.404819 659.534209 -0.000000 0.269817 0.150481 -0.379094
5.090000 -115.055008 23.265660 -0.000000 0.317321 0.501992 -0.152163 261.314001 586.873638 -0.000000 0.260161 0.151357 -0.379093
5.095000 -108.206109 54.951235 -0.000000 0.326300 0.501043 -0.152283 253.960123 514.040696 -0.000000 0.250558 0.153142 -0.379021
5.100000 -98.431031 88.315457 -0.000000 0.335097 0.499653 -0.152275 244.038311 441.568171 -0.000000 0.241092 0.155652 -0.378881
5.105000 -86.526422 122.470856 -0.000000 0.343291 0.497736 -0.152364 231.346224 370.754874 -0.000000 0.231871 0.158894 -0.378672
5.110000 -73.394252 157.079774 -0.000000 0.350936 0.494948 -0.152203 216.554620 302.182781 -0.000000 0.222899 0.162750 -0.378372
5.115000 -59.992636 192.215528 -0.000000 0.358071 0.491318 -0.152045 199.815732 235.827139 -0.000000 0.214215 0.167180 -0.378081
5.120000 -47.235951 228.323714 -0.000000 0.364542 0.486759 -0.151734 180.587581 170.952250 -0.000000 0.205787 0.172110 -0.377860
5.125000 -35.397734 266.145814 -0.000000 0.371027 0.481173 -0.151031 158.144953 106.486889 -0.000000 0.197724 0.177506 -0.377712
5.130000 -25.419126 306.267779 -0.000000 0.376812 0.475022 -0.150480 131.446465 43.123767 -0.000000 0.189932 0.183477 -0.377533
5.135000 -17.617860 349.195696 -0.000000 0.382196 0.468300 -0.150184 100.965873 -17.130144 -0.000000 0.182523 0.189860 -0.377473
5.140000 -11.573677 395.088847 -0.000000 0.387089 0.460858 -0.149767 68.224284 -71.271367 -0.000000 0.174718 0.196524 -0.376594
5.145000 -8.475862 443.603787 -0.000000 0.391801 0.452967 -0.149285 35.454096 -116.346513 -0.000000 0.168019 0.203745 -0.376605
5.150000 -7.546344 493.998972 -0.000000 0.396264 0.444385 -0.148545 4.339321 -151.123760 -0.000000 0.161804 0.211514 -0.376538
5.155000 -9.023412 545.084567 -0.000000 0.400392 0.435260 -0.148489 -23.737306 -175.413644 -0.000000 0.156055 0.219546 -0.376667
5.160000 -12.387971 595.436943 -0.000000 0.404680 0.426107 -0.149302 -47.932518 -189.843875 -0.000000 0.150599 0.227975 -0.376763
5.165000 -17.631596 643.643631 -0.000000 0.408354 0.416399 -0.149674 -67.438266 -195.521024 -0.000000 0.145755 0.236927 -0.376792
5.170000 -23.697035 688.642730 -0.000000 0.412216 0.406108 -0.149363 -81.901019 -193.685597 -0.000000 0.141369 0.245989 -0.376850
5.175000 -31.418856 729.819767 -0.000000 0.415307 0.395594 -0.149742 -90.483407 -185.860759 -0.000000 0.137471 0.255361 -0.376899
5.180000 -39.923761 767.073059 -0.000000 0.418183 0.385161 -0.150305 -92.922845 -173.386720 -0.000000 0.134006 0.265120 -0.376984
5.185000 -48.048807 800.635666 -0.000000 0.420715 0.374486 -0.150306 -89.199751 -157.593520 -0.000000 0.131252 0.275264 -0.377090
5.190000 -55.081393 830.886000 -0.000000 0.422913 0.363587 -0.150158 -79.675101 -139.937268 -0.000000 0.129031 0.285594 -0.377181
5.195000 -60.344838 858.251434 -0.000000 0.424357 0.352516 -0.149381 -65.451733 -121.847327 -0.000000 0.127454 0.296159 -0.377218
5.200000 -63.533428 883.145848 -0.000000 0.425581 0.341459 -0.150272 -48.181525 -104.493399 -0.000000 0.126444 0.306795 -0.377359
5.205000 -64.325056 906.028143 -0.000000 0.426179 0.330279 -0.149864 -29.578001 -88.567574 -0.000000 0.126109 0.317359 -0.377365
5.210000 -61.871413 927.450366 -0.000000 0.426198 0.319062 -0.149887 -10.998031 -74.366654 -0.000000 0.126370 0.328047 -0.377441
5.215000 -57.289616 947.838726 -0.000000 0.425783 0.308053 -0.149737 6.807904 -62.014567 -0.000000 0.127189 0.338669 -0.377464
5.220000 -47.022391 967.836914 -0.000000 0.424545 0.297070 -0.148513 23.060454 -51.602335 -0.000000 0.128756 0.350037 -0.377629
5.225000 -38.165362 987.432355 -0.000000 0.422967 0.286306 -0.148489 37.767206 -43.083056 -0.000000 0.130962 0.360235 -0.377786
5.230000 -25.957601 1007.127364 -0.000000 0.420977 0.275562 -0.149344 50.372182 -36.713358 -0.000000 0.133674 0.370636 -0.377825
5.235000 -12.029289 1026.921975 -0.000000 0.418275 0.265079 -0.149224 60.711185 -32.629381 -0.000000 0.137009 0.380867 -0.377975
5.240000 3.589365 1046.626336 -0.000000 0.415076 0.254832 -0.148930 68.533503 -30.941931 -0.000000 0.141024 0.390945 -0.378112
5.245000 21.090320 1065.772844 -0.000000 0.411369 0.244784 -0.148653 73.586847 -31.678505 -0.000000 0.145661 0.400919 -0.378228
5.250000 40.112284 1083.695874 -0.000000 0.406970 0.234948 -0.148050 75.630363 -34.722639 -0.000000 0.150967 0.410525 -0.378336
5.255000 59.040504 1099.691768 -0.000000 0.402210 0.225723 -0.147828 74.486365 -39.750718 -0.000000 0.156901 0.419817 -0.378414
5.260000 79.372257 1112.868629 -0.000000 0.396999 0.216465 -0.147604 69.987211 -46.589930 -0.000000 0.163460 0.428603 -0.378506
5.265000 100.115907 1122.396170 -0.000000 0.391242 0.207778 -0.147241 62.176115 -54.910679 -0.000000 0.170614 0.437013 -0.378601
5.270000 121.388075 1127.344933 -0.000000 0.384962 0.199574 -0.146220 51.127238 -64.486612 -0.000000 0.178377 0.444915 -0.378736
5.275000 142.761821 1126.852132 -0.000000 0.378213 0.191715 -0.145729 37.066302 -75.067331 -0.000000 0.186489 0.452408 -0.378833
5.280000 163.357605 1120.287169 -0.000000 0.371089 0.184569 -0.145311 20.496919 -86.379277 -0.000000 0.195195 0.459291 -0.378871
5.285000 181.475925 1107.449713 -0.000000 0.363544 0.178013 -0.144934 2.215720 -98.100965 -0.000000 0.203664 0.465857 -0.378391
5.290000 199.530557 1087.765286 -0.000000 0.355701 0.171836 -0.144604 -17.275471 -109.827487 -0.000000 0.213012 0.471748 -0.378563
5.295000 221.084865 1060.454016 -0.000000 0.347697 0.166343 -0.144205 -37.764292 -120.835820 -0.000000 0.224703 0.477077 -0.379712
5.300000 230.105022 1029.023228 -0.000000 0.339394 0.161326 -0.143950 -56.804466 -131.112450 -0.000000 0.233185 0.481823 -0.378652
5.305000 239.495406 991.180301 -0.000000 0.331111 0.156914 -0.143523 -75.251689 -139.633862 -0.000000 0.243049 0.486102 -0.378712
5.310000 245.921482 947.937543 -0.000000 0.322651 0.153253 -0.143115 -92.229105 -145.860529 -0.000000 0.253021 0.489731 -0.378771
5.315000 249.481149 899.633618 -0.000000 0.314145 0.150186 -0.142368 -107.354118 -149.293440 -0.000000 0.263095 0.492842 -0.378854
5.320000 249.982419 846.775198 -0.000000 0.305641 0.147775 -0.141901 -120.336400 -149.708795 -0.000000 0.273153 0.495217 -0.378923
5.325000 248.898396 789.488712 -0.000000 0.297008 0.146052 -0.141545 -131.305123 -146.751626 -0.000000 0.283469 0.497068 -0.378634
5.330000 245.079125 728.830082 -0.000000 0.288305 0.145226 -0.141134 -139.970894 -140.435477 -0.000000 0.293363 0.498194 -0.378774
5.335000 240.474090 665.023735 -0.000000 0.279374 0.145128 -0.140786 -146.594964 -130.147736 -0.000000 0.303354 0.498794 -0.378695
5.340000 234.567382 599.168684 -0.000000 0.270223 0.145821 -0.140584 -150.890780 -115.556706 -0.000000 0.312966 0.498706 -0.378869
5.345000 227.722906 531.996961 -0.000000 0.260899 0.147397 -0.140623 -152.643449 -96.093928 -0.000000 0.322263 0.498235 -0.379350
5.350000 220.533173 463.869913 -0.000000 0.251347 0.149793 -0.140817 -151.622686 -71.147119 -0.000000 0.331494 0.497066 -0.379384
5.355000 212.132478 395.510077 -0.000000 0.241754 0.153080 -0.141093 -147.391185 -40.729871 -0.000000 0.340224 0.495211 -0.379487
5.360000 202.220231 327.241592 -0.000000 0.232263 0.157089 -0.141534 -139.879852 -5.161415 -0.000000 0.348478 0.492726 -0.379732
5.365000 190.301667 259.489722 -0.000000 0.222994 0.161747 -0.142108 -129.502865 34.484548 -0.000000 0.355946 0.489361 -0.380116
5.370000 176.302442 192.583036 -0.000000 0.214173 0.167208 -0.142587 -117.107833 76.854522 -0.000000 0.363057 0.485500 -0.380569
5.375000 160.127755 127.129124 -0.000000 0.205738 0.173411 -0.143152 -103.483496 120.641411 -0.000000 0.369687 0.480645 -0.381128
5.380000 141.736770 64.111984 -0.000000 0.197660 0.180286 -0.143736 -89.064266 164.721949 -0.000000 0.375808 0.474851 -0.381851
5.385000 121.320593 4.739226 -0.000000 0.189938 0.187693 -0.144374 -73.752822 208.065755 -0.000000 0.381909 0.468485 -0.382667
5.390000 99.294001 -49.286262 -0.000000 0.182553 0.195827 -0.144933 -57.572911 249.338422 -0.000000 0.387212 0.461716 -0.383229
5.395000 76.299992 -96.522697 -0.000000 0.175612 0.204089 -0.145529 -39.750390 287.169449 -0.000000 0.392131 0.453753 -0.383773
5.400000 53.174915 -135.337354 -0.000000 0.169194 0.212729 -0.146187 -20.069650 319.847919 -0.000000 0.396772 0.445449 -0.384116
5.405000 30.866108 -164.522849 -0.000000 0.163329 0.221376 -0.146701 1.685457 345.968358 -0.000000 0.401481 0.436647 -0.384084
5.410000 10.687321 -183.469713 -0.000000 0.158114 0.229862 -0.146911 24.919515 364.857033 -0.000000 0.405949 0.427299 -0.383972
5.415000 -6.169610 -192.538058 -0.000000 0.153511 0.238418 -0.146730 49.084904 376.682498 -0.000000 0.410180 0.417800 -0.383677
5.420000 -18.952045 -192.996325 -0.000000 0.149434 0.247139 -0.146309 73.948081 382.084794 -0.000000 0.414205 0.408119 -0.383268
5.425000 -27.123303 -186.782204 -0.000000 0.145932 0.255979 -0.145843 99.011572 382.000170 -0.000000 0.417770 0.398245 -0.382749
5.430000 -31.174386 -176.011629 -0.000000 0.142861 0.265164 -0.145454 125.162844 377.077720 -0.000000 0.421035 0.387725 -0.382257
5.435000 -30.998076 -162.832968 -0.000000 0.140163 0.274657 -0.145310 151.326821 368.401394 -0.000000 0.423936 0.377531 -0.381732
5.440000 -27.802229 -148.833589 -0.000000 0.137765 0.284435 -0.145105 178.563498 356.150901 -0.000000 0.426453 0.366758 -0.381305
5.445000 -22.009302 -135.228725 -0.000000 0.135447 0.294047 -0.145546 205.671114 341.273837 -0.000000 0.428460 0.356041 -0.380781
5.450000 -14.894605 -122.545473 -0.000000 0.134436 0.304091 -0.145617 233.248718 323.686188 -0.000000 0.429850 0.345090 -0.380608
5.455000 -7.240067 -111.005217 -0.000000 0.133964 0.314392 -0.145465 260.716334 303.644142 -0.000000 0.430806 0.334122 -0.380657
5.460000 0.418357 -100.620572 -0.000000 0.134057 0.324675 -0.145385 286.897623 281.754352 -0.000000 0.430846 0.323124 -0.380403
